mastitorrents.com
  
http://mastitorrents.com/forums/index.php
  
http://thepiratebay.se/user/HDvideos/0/7

Death Race 3 (2012) UNRATED BRRip 720p Dual Audio [Hindi-Eng] ESubs

General

Format                                   : Matroska
Format version                           : Version 2
File size                                : 818 MiB
Duration                                 : 1h 45mn
Overall bit rate                         : 1 087 Kbps
Movie name                               : Death Race 3

Video

ID                                       : 1
Format                                   : AVC
Format/Info                              : Advanced Video Codec
Format profile                           : High@L4.0
Format settings, CABAC                   : Yes
Format settings, ReFrames                : 7 frames
Muxing mode                              : Header stripping
Codec ID                                 : V_MPEG4/ISO/AVC
Duration                                 : 1h 45mn
Bit rate                                 : 831 Kbps
Width                                    : 1 280 pixels
Height                                   : 720 pixels
Display aspect ratio                     : 16:9
Frame rate mode                          : Constant
Frame rate                               : 23.976 fps
Color space                              : YUV
Chroma subsampling                       : 4:2:0
Bit depth                                : 8 bits
Scan type                                : Progressive
Bits/(Pixel*Frame)                       : 0.038
Stream size                              : 609 MiB (74%)
Title                                    : - Sonic -
Writing library                          : x264 core 129 r2230 1cffe9f

Audio 1

ID                                       : 2
Format                                   : AC-3
Format/Info                              : Audio Coding 3
Mode extension                           : CM (complete main)
Format settings, Endianness              : Big
Muxing mode                              : Header stripping
Codec ID                                 : A_AC3
Duration                                 : 1h 45mn
Bit rate mode                            : Constant
Bit rate                                 : 128 Kbps
Channel(s)                               : 6 channels
Channel positions                        : Front: L C R, Side: L R, LFE
Sampling rate                            : 48.0 KHz
Bit depth                                : 16 bits
Compression mode                         : Lossy
Delay relative to video                  : 24ms
Stream size                              : 96.3 MiB (12%)
Title                                    : - Sonic -
Language                                 : Hindi

Audio #2

ID                                       : 3
Format                                   : AC-3
Format/Info                              : Audio Coding 3
Mode extension                           : CM (complete main)
Format settings, Endianness              : Big
Muxing mode                              : Header stripping
Codec ID                                 : A_AC3
Duration                                 : 1h 45mn
Bit rate mode                            : Constant
Bit rate                                 : 128 Kbps
Channel(s)                               : 2 channels
Channel positions                        : Front: L R
Sampling rate                            : 48.0 KHz
Bit depth                                : 16 bits
Compression mode                         : Lossy
Stream size                              : 96.3 MiB (12%)
Title                                    : - Sonic -
Language                                 : English

Screens
 
http://s11.postimage.org/4l62ox5rn/image.png 
http://s11.postimage.org/jij53o8dv/image.png 
http://s11.postimage.org/aos8mklf7/image.png 
http://s11.postimage.org/7x8yvymwj/image.png 
http://s11.postimage.org/b5dg9096b/image.png